<?xml version="1.0" encoding="UTF-8"?>
<svg width="16px" height="16px" viewBox="0 0 16 16" version="1.1" xmlns="http://www.w3.org/2000/svg" xmlns:xlink="http://www.w3.org/1999/xlink">
    <title>警告</title>
    <defs>
        <filter id="filter-1">
            <feColorMatrix in="SourceGraphic" type="matrix" values="0 0 0 0 0.749020 0 0 0 0 0.749020 0 0 0 0 0.749020 0 0 0 1.000000 0"></feColorMatrix>
        </filter>
    </defs>
    <g id="页面-1" stroke="none" stroke-width="1" fill="none" fill-rule="evenodd">
        <g id="49-新增账号" transform="translate(-895.000000, -289.000000)">
            <g id="文本弹窗" transform="translate(279.000000, 167.000000)">
                <g id="默认_小备份-5" transform="translate(552.000000, 81.000000)">
                    <g id="编组" transform="translate(64.000000, 40.000000)">
                        <g id="警告" transform="translate(0.000000, 1.000000)" filter="url(#filter-1)">
                            <g id="警告/面性">
                                <rect id="区域" fill-opacity="0" fill="#D8D8D8" x="0" y="0" width="16" height="16"></rect>
                                <path d="M8,1 C11.8659932,1 15,4.13400675 15,8 C15,11.8659932 11.8659932,15 8,15 C4.13400675,15 1,11.8659932 1,8 C1,4.13400675 4.13400675,1 8,1 Z M8,11 C7.72385763,11 7.5,11.2238576 7.5,11.5 C7.5,11.7761424 7.72385763,12 8,12 C8.27614237,12 8.5,11.7761424 8.5,11.5 C8.5,11.2238576 8.27614237,11 8,11 Z M8,4 C7.72385763,4 7.5,4.25583729 7.5,4.57142857 L7.5,8.76190476 C7.5,9.07749605 7.72385763,9.33333333 8,9.33333333 C8.27614237,9.33333333 8.5,9.07749605 8.5,8.76190476 L8.5,4.57142857 C8.5,4.25583729 8.27614237,4 8,4 Z" id="形状" fill="#FA541C"></path>
                            </g>
                        </g>
                    </g>
                </g>
            </g>
        </g>
    </g>
</svg>